<svg xmlns="http://www.w3.org/2000/svg" width="850" height="430" viewBox="0 0 850 430">
<rect class="bg" x="0" y="0" width="850" height="430"/>

<style>
  .bg { fill: #ffffff; }
  .panel { fill: #f8fafc; stroke: #d0d7de; stroke-width: 1; rx: 10; }
  .edge { stroke: #334155; stroke-width: 2.2; fill: none; }
  .edge2 { stroke: #64748b; stroke-width: 1.7; fill: none; }
  .selected { stroke: #2563eb; stroke-width: 4; fill: none; }
  .skip { stroke: #ef4444; stroke-width: 2.5; stroke-dasharray: 6 4; fill: none; }
  .cut { stroke: #9333ea; stroke-width: 2; stroke-dasharray: 4 4; fill: none; }
  .node { fill: #ffffff; stroke: #0f172a; stroke-width: 2; }
  .node2 { fill: #e0f2fe; stroke: #0369a1; stroke-width: 2; }
  .node3 { fill: #fef3c7; stroke: #92400e; stroke-width: 2; }
  .node4 { fill: #dcfce7; stroke: #166534; stroke-width: 2; }
  .leaf { fill: #f0fdf4; stroke: #166534; stroke-width: 2; }
  .bad { fill: #fee2e2; stroke: #991b1b; stroke-width: 2; }
  .text { font-family: DejaVu Sans, Noto Sans CJK KR, Arial, sans-serif; font-size: 15px; fill: #0f172a; }
  .small { font-family: DejaVu Sans, Noto Sans CJK KR, Arial, sans-serif; font-size: 12px; fill: #334155; }
  .tiny { font-family: DejaVu Sans, Noto Sans CJK KR, Arial, sans-serif; font-size: 10px; fill: #475569; }
  .title { font-family: DejaVu Sans, Noto Sans CJK KR, Arial, sans-serif; font-size: 18px; font-weight: 700; fill: #0f172a; }
  .label { font-family: DejaVu Sans, Noto Sans CJK KR, Arial, sans-serif; font-size: 13px; fill: #1e293b; }
  .weight { font-family: DejaVu Sans, Arial, sans-serif; font-size: 13px; fill: #0f172a; font-weight: 700; }
</style>

<text class="title" x="25" y="32" text-anchor="start">Decision tree for sorting three items a, b, c</text>
<line class="edge2" x1="425" y1="88" x2="245" y2="137"/>
<text class="tiny" x="335.0" y="112.5" text-anchor="middle">yes</text>
<line class="edge2" x1="425" y1="88" x2="605" y2="137"/>
<text class="tiny" x="515.0" y="112.5" text-anchor="middle">no</text>
<line class="edge2" x1="245" y1="173" x2="155" y2="222"/>
<text class="tiny" x="200.0" y="197.5" text-anchor="middle">yes</text>
<line class="edge2" x1="245" y1="173" x2="335" y2="222"/>
<text class="tiny" x="290.0" y="197.5" text-anchor="middle">no</text>
<line class="edge2" x1="605" y1="173" x2="515" y2="222"/>
<text class="tiny" x="560.0" y="197.5" text-anchor="middle">yes</text>
<line class="edge2" x1="605" y1="173" x2="695" y2="222"/>
<text class="tiny" x="650.0" y="197.5" text-anchor="middle">no</text>
<line class="edge2" x1="335" y1="258" x2="280" y2="312"/>
<text class="tiny" x="307.5" y="285.0" text-anchor="middle">yes</text>
<line class="edge2" x1="335" y1="258" x2="390" y2="312"/>
<text class="tiny" x="362.5" y="285.0" text-anchor="middle">no</text>
<line class="edge2" x1="695" y1="258" x2="640" y2="312"/>
<text class="tiny" x="667.5" y="285.0" text-anchor="middle">yes</text>
<line class="edge2" x1="695" y1="258" x2="750" y2="312"/>
<text class="tiny" x="722.5" y="285.0" text-anchor="middle">no</text>
<rect class="node2" x="380" y="52" width="90" height="36" rx="8"/>
<text class="text" x="425.0" y="75.0" text-anchor="middle">a &lt; b?</text>
<rect class="node2" x="200" y="137" width="90" height="36" rx="8"/>
<text class="text" x="245.0" y="160.0" text-anchor="middle">b &lt; c?</text>
<rect class="node2" x="560" y="137" width="90" height="36" rx="8"/>
<text class="text" x="605.0" y="160.0" text-anchor="middle">a &lt; c?</text>
<rect class="leaf" x="120" y="222" width="70" height="36" rx="8"/>
<text class="text" x="155.0" y="245.0" text-anchor="middle">a b c</text>
<rect class="node2" x="290" y="222" width="90" height="36" rx="8"/>
<text class="text" x="335.0" y="245.0" text-anchor="middle">a &lt; c?</text>
<rect class="leaf" x="480" y="222" width="70" height="36" rx="8"/>
<text class="text" x="515.0" y="245.0" text-anchor="middle">b a c</text>
<rect class="node2" x="650" y="222" width="90" height="36" rx="8"/>
<text class="text" x="695.0" y="245.0" text-anchor="middle">b &lt; c?</text>
<rect class="leaf" x="245" y="312" width="70" height="36" rx="8"/>
<text class="text" x="280.0" y="335.0" text-anchor="middle">a c b</text>
<rect class="leaf" x="355" y="312" width="70" height="36" rx="8"/>
<text class="text" x="390.0" y="335.0" text-anchor="middle">c a b</text>
<rect class="leaf" x="605" y="312" width="70" height="36" rx="8"/>
<text class="text" x="640.0" y="335.0" text-anchor="middle">b c a</text>
<rect class="leaf" x="715" y="312" width="70" height="36" rx="8"/>
<text class="text" x="750.0" y="335.0" text-anchor="middle">c b a</text>
<text class="small" x="40" y="400" text-anchor="start">Each leaf is one possible final order; 3! = 6 orders require at least 6 leaves.</text>
</svg>