<svg xmlns="http://www.w3.org/2000/svg" width="920" height="430" viewBox="0 0 920 430">
<rect class="bg" x="0" y="0" width="920" height="430"/>

<style>
  .bg { fill: #ffffff; }
  .panel { fill: #f8fafc; stroke: #d0d7de; stroke-width: 1; rx: 10; }
  .edge { stroke: #334155; stroke-width: 2.2; fill: none; }
  .edge2 { stroke: #64748b; stroke-width: 1.7; fill: none; }
  .selected { stroke: #2563eb; stroke-width: 4; fill: none; }
  .skip { stroke: #ef4444; stroke-width: 2.5; stroke-dasharray: 6 4; fill: none; }
  .cut { stroke: #9333ea; stroke-width: 2; stroke-dasharray: 4 4; fill: none; }
  .node { fill: #ffffff; stroke: #0f172a; stroke-width: 2; }
  .node2 { fill: #e0f2fe; stroke: #0369a1; stroke-width: 2; }
  .node3 { fill: #fef3c7; stroke: #92400e; stroke-width: 2; }
  .node4 { fill: #dcfce7; stroke: #166534; stroke-width: 2; }
  .leaf { fill: #f0fdf4; stroke: #166534; stroke-width: 2; }
  .bad { fill: #fee2e2; stroke: #991b1b; stroke-width: 2; }
  .text { font-family: DejaVu Sans, Noto Sans CJK KR, Arial, sans-serif; font-size: 15px; fill: #0f172a; }
  .small { font-family: DejaVu Sans, Noto Sans CJK KR, Arial, sans-serif; font-size: 12px; fill: #334155; }
  .tiny { font-family: DejaVu Sans, Noto Sans CJK KR, Arial, sans-serif; font-size: 10px; fill: #475569; }
  .title { font-family: DejaVu Sans, Noto Sans CJK KR, Arial, sans-serif; font-size: 18px; font-weight: 700; fill: #0f172a; }
  .label { font-family: DejaVu Sans, Noto Sans CJK KR, Arial, sans-serif; font-size: 13px; fill: #1e293b; }
  .weight { font-family: DejaVu Sans, Arial, sans-serif; font-size: 13px; fill: #0f172a; font-weight: 700; }
</style>

<text class="title" x="25" y="35" text-anchor="start">DFS tree and BFS tree from A</text>
<line class="edge2" x1="470" y1="80" x2="370" y2="170"/>
<line class="edge2" x1="470" y1="80" x2="570" y2="170"/>
<line class="edge2" x1="370" y1="170" x2="330" y2="285"/>
<line class="edge2" x1="370" y1="170" x2="450" y2="285"/>
<line class="edge2" x1="330" y1="285" x2="450" y2="285"/>
<line class="edge2" x1="450" y1="285" x2="600" y2="285"/>
<line class="edge2" x1="570" y1="170" x2="600" y2="285"/>
<circle class="node" cx="470" cy="80" r="16"/>
<text class="text" x="470" y="85" text-anchor="middle">A</text>
<circle class="node" cx="370" cy="170" r="16"/>
<text class="text" x="370" y="175" text-anchor="middle">B</text>
<circle class="node" cx="570" cy="170" r="16"/>
<text class="text" x="570" y="175" text-anchor="middle">C</text>
<circle class="node" cx="330" cy="285" r="16"/>
<text class="text" x="330" y="290" text-anchor="middle">D</text>
<circle class="node" cx="450" cy="285" r="16"/>
<text class="text" x="450" y="290" text-anchor="middle">E</text>
<circle class="node" cx="600" cy="285" r="16"/>
<text class="text" x="600" y="290" text-anchor="middle">F</text>
<text class="label" x="405" y="335" text-anchor="start">Graph</text>
<line class="selected" x1="220" y1="100" x2="120" y2="190"/>
<line class="selected" x1="120" y1="190" x2="80" y2="305"/>
<line class="selected" x1="80" y1="305" x2="200" y2="305"/>
<line class="selected" x1="200" y1="305" x2="350" y2="305"/>
<line class="selected" x1="350" y1="305" x2="320" y2="190"/>
<circle class="node2" cx="220" cy="100" r="16"/>
<text class="text" x="220" y="105" text-anchor="middle">A</text>
<circle class="node2" cx="120" cy="190" r="16"/>
<text class="text" x="120" y="195" text-anchor="middle">B</text>
<circle class="node2" cx="320" cy="190" r="16"/>
<text class="text" x="320" y="195" text-anchor="middle">C</text>
<circle class="node2" cx="80" cy="305" r="16"/>
<text class="text" x="80" y="310" text-anchor="middle">D</text>
<circle class="node2" cx="200" cy="305" r="16"/>
<text class="text" x="200" y="310" text-anchor="middle">E</text>
<circle class="node2" cx="350" cy="305" r="16"/>
<text class="text" x="350" y="310" text-anchor="middle">F</text>
<text class="small" x="125" y="360" text-anchor="start">DFS: A B D E F C</text>
<line class="selected" x1="720" y1="100" x2="620" y2="190"/>
<line class="selected" x1="720" y1="100" x2="820" y2="190"/>
<line class="selected" x1="620" y1="190" x2="580" y2="305"/>
<line class="selected" x1="620" y1="190" x2="700" y2="305"/>
<line class="selected" x1="820" y1="190" x2="850" y2="305"/>
<circle class="node3" cx="720" cy="100" r="16"/>
<text class="text" x="720" y="105" text-anchor="middle">A</text>
<circle class="node3" cx="620" cy="190" r="16"/>
<text class="text" x="620" y="195" text-anchor="middle">B</text>
<circle class="node3" cx="820" cy="190" r="16"/>
<text class="text" x="820" y="195" text-anchor="middle">C</text>
<circle class="node3" cx="580" cy="305" r="16"/>
<text class="text" x="580" y="310" text-anchor="middle">D</text>
<circle class="node3" cx="700" cy="305" r="16"/>
<text class="text" x="700" y="310" text-anchor="middle">E</text>
<circle class="node3" cx="850" cy="305" r="16"/>
<text class="text" x="850" y="310" text-anchor="middle">F</text>
<text class="small" x="650" y="360" text-anchor="start">BFS: A B C D E F</text>
</svg>